<?xml version="1.0" encoding="UTF-8"?>
<svg width="16px" height="16px" viewBox="0 0 16 16" version="1.1" xmlns="http://www.w3.org/2000/svg" xmlns:xlink="http://www.w3.org/1999/xlink">
    <!-- Generator: Sketch 55.2 (78181) - https://sketchapp.com -->
    <title>safari-pinned-tab</title>
    <desc>Created with Sketch.</desc>
    <g id="Page-1" stroke="none" stroke-width="1" fill="none" fill-rule="evenodd">
        <g id="apple-16x16" fill="#FFFFFF" fill-rule="nonzero">
            <path d="M1,7.86666667 C1,6.90369889 1.17436954,5.95926389 1.52311385,5.03333333 C1.87185816,4.10740278 2.38012682,3.26296678 3.04793507,2.5 C3.71574333,1.73703322 4.53194118,1.12963189 5.4965531,0.677777778 C6.46116502,0.225923667 7.55932212,0 8.79105735,0 C10.2453953,0 11.503082,0.318515333 12.5641551,0.955555556 C13.6252282,1.59259578 14.4154562,2.42221711 14.9348626,3.44444444 L12.5752852,5.06666667 C12.3081619,4.47407111 11.9594228,4.00370544 11.5290575,3.65555556 C11.0986922,3.30740567 10.6386534,3.06296367 10.1489273,2.92222222 C9.65920129,2.78148078 9.17690256,2.71111111 8.70201669,2.71111111 C7.93032716,2.71111111 7.25881893,2.86666511 6.68747187,3.17777778 C6.1161248,3.48889044 5.63753607,3.89629378 5.2516913,4.4 C4.86584653,4.90370622 4.58017728,5.46666356 4.39467499,6.08888889 C4.2091727,6.71111422 4.11642294,7.33333022 4.11642294,7.95555556 C4.11642294,8.65185533 4.22772265,9.322219 4.4503254,9.96666667 C4.67292815,10.6111143 4.98827732,11.181479 5.39638236,11.6777778 C5.80448741,12.1740766 6.29420611,12.5666652 6.86555318,12.8555556 C7.43690024,13.1444459 8.06388858,13.2888889 8.74653702,13.2888889 C9.23626308,13.2888889 9.73340176,13.2074082 10.237968,13.0444444 C10.7425342,12.8814807 11.209993,12.622224 11.6403583,12.2666667 C12.0707236,11.9111093 12.4046228,11.4518547 12.6420657,10.8888889 L15.1574642,12.3333333 C14.8458204,13.1185224 14.3375517,13.7851824 13.632643,14.3333333 C12.9277343,14.8814842 12.1375064,15.2962949 11.2619355,15.5777778 C10.3863647,15.8592607 9.51822701,16 8.65749637,16 C7.52964243,16 6.49826515,15.766669 5.56333359,15.3 C4.62840203,14.833331 3.82333416,14.211115 3.14810581,13.4333333 C2.47287747,12.6555517 1.94605886,11.7814863 1.56763418,10.8111111 C1.1892095,9.84073589 1,8.85926422 1,7.86666667 Z" id="Path"></path>
        </g>
    </g>
</svg>