<?xml version="1.0" encoding="UTF-8"?>
<svg width="16px" height="16px" viewBox="0 0 16 16" version="1.1" xmlns="http://www.w3.org/2000/svg" xmlns:xlink="http://www.w3.org/1999/xlink">
    <title>safari-pinned-tab</title>
    <g id="Page-1" stroke="none" stroke-width="1" fill="none" fill-rule="evenodd">
        <g id="apple-16x16" fill="#FFFFFF" fill-rule="nonzero">
            <polygon id="I" points="14.6748466 11.5698466 14.6748466 4.54909616 16 4.54909616 16 11.5698466"></polygon>
            <path d="M10.2380684,11.6189427 C9.67824556,11.6189427 9.20240326,11.5250086 8.81052725,11.3371377 C8.41865125,11.1492667 8.10252072,10.8905359 7.8621262,10.5609377 C7.62173167,10.2313395 7.44555477,9.85725112 7.33359019,9.43866138 C7.22162562,9.02007163 7.16564417,8.58336053 7.16564417,8.12851498 L7.16564417,4.54909616 L8.52897069,4.54909616 L8.52897069,8.12851498 C8.52897069,8.41856142 8.55696141,8.70036368 8.6129437,8.9739302 C8.66892599,9.24749673 8.76277723,9.49304372 8.89450026,9.71057855 C9.02622329,9.92811338 9.20075368,10.0995019 9.41809668,10.2247492 C9.63543967,10.3499959 9.90546783,10.4126193 10.2281892,10.4126193 C10.5574968,10.4126193 10.8324645,10.3483486 11.0531006,10.2198053 C11.2737367,10.091262 11.448267,9.91822548 11.576697,9.70069065 C11.7051269,9.48315583 11.7989782,9.23760883 11.8582536,8.9640423 C11.9175289,8.69047578 11.9471662,8.41196946 11.9471662,8.12851498 L11.9471662,4.54909616 L13.3006135,4.54909616 L13.3006135,8.12851498 C13.3006135,8.60972839 13.2429855,9.06127119 13.1277279,9.48315691 C13.0124702,9.90504264 12.8313538,10.2758351 12.5843731,10.5955454 C12.3373924,10.9152556 12.0196154,11.1657465 11.6310325,11.3470256 C11.2424495,11.5283046 10.7781328,11.6189427 10.2380684,11.6189427 Z" id="U"></path>
            <path d="M7.54951657e-15,8.00014684 C7.54951657e-15,7.57168981 0.0779789246,7.15147865 0.233939113,6.73950073 C0.389899302,6.32752282 0.617199572,5.9518046 0.915846742,5.6123348 C1.21449391,5.272865 1.57950164,5.00261155 2.01088089,4.80156632 C2.44226013,4.6005211 2.93336145,4.5 3.48419956,4.5 C4.13458673,4.5 4.69703046,4.64171828 5.17154763,4.92515908 C5.6460648,5.20859988 5.99945865,5.57772656 6.23173978,6.03255017 L5.17652506,6.75433186 C5.05706619,6.490666 4.90110834,6.28138436 4.70864683,6.12648067 C4.51618532,5.97157697 4.31045369,5.86281643 4.09144577,5.80019579 C3.87243784,5.73757515 3.65675146,5.7062653 3.44438014,5.7062653 C3.09927674,5.7062653 2.79897492,5.77547655 2.54346568,5.91390113 C2.28795643,6.0523257 2.07392917,6.23359327 1.90137747,6.45770925 C1.72882578,6.68182524 1.60107307,6.93230405 1.51811552,7.20915321 C1.43515798,7.48600236 1.39367982,7.76284737 1.39367982,8.03969652 C1.39367982,8.34950391 1.44345361,8.64777145 1.54300266,8.93450808 C1.64255172,9.2212447 1.78357743,9.47501929 1.96608404,9.69583945 C2.14859064,9.91665961 2.36759528,10.0913356 2.62310453,10.2198727 C2.87861377,10.3484098 3.15900607,10.4126774 3.46428985,10.4126774 C3.68329777,10.4126774 3.90562066,10.3764239 4.13126519,10.3039158 C4.35690972,10.2314077 4.5659596,10.1160556 4.75842111,9.95785609 C4.95088262,9.79965658 5.10020397,9.5953186 5.20638963,9.34483603 L6.33128834,9.98751836 C6.19191966,10.3368756 5.96461939,10.6334953 5.64938072,10.8773862 C5.33414204,11.1212771 4.98074819,11.3058405 4.58918856,11.4310817 C4.19762894,11.556323 3.80939344,11.6189427 3.42447042,11.6189427 C2.92008854,11.6189427 2.45885149,11.5151259 2.04074546,11.307489 C1.62263942,11.0998521 1.26260906,10.8230071 0.960643593,10.4769457 C0.658678121,10.1308842 0.423082221,9.74198291 0.253848825,9.31023005 C0.0846154289,8.8784772 7.54951657e-15,8.44178716 7.54951657e-15,8.00014684 Z" id="C"></path>
        </g>
    </g>
</svg>